<svg preserveAspectRatio="none" width="100%" height="100%" overflow="visible" style="display: block;" viewBox="0 0 32 32" fill="none" xmlns="http://www.w3.org/2000/svg">
<g id="Icon">
<path id="Vector" d="M10.6661 29.3335C11.4025 29.3335 11.9995 28.7365 11.9995 28.0001C11.9995 27.2638 11.4025 26.6668 10.6661 26.6668C9.92977 26.6668 9.33281 27.2638 9.33281 28.0001C9.33281 28.7365 9.92977 29.3335 10.6661 29.3335Z" stroke="white" stroke-width="1.66667" stroke-linecap="round" stroke-linejoin="round"/>
<path id="Vector_2" d="M25.3333 29.3337C26.0697 29.3337 26.6667 28.7367 26.6667 28.0003C26.6667 27.2639 26.0697 26.667 25.3333 26.667C24.597 26.667 24 27.2639 24 28.0003C24 28.7367 24.597 29.3337 25.3333 29.3337Z" stroke="white" stroke-width="1.66667" stroke-linecap="round" stroke-linejoin="round"/>
<path id="Vector_3" d="M2.73242 2.7334H5.39909L8.94576 19.2934C9.07586 19.8999 9.41332 20.442 9.90004 20.8265C10.3868 21.2111 10.9923 21.4139 11.6124 21.4001H24.6524C25.2593 21.3991 25.8477 21.1911 26.3205 20.8105C26.7932 20.4299 27.1219 19.8994 27.2524 19.3067L29.4524 9.40006H6.82576" stroke="white" stroke-width="1.66667" stroke-linecap="round" stroke-linejoin="round"/>
</g>
</svg>
